<mxfile host="app.diagrams.net" modified="2025-04-10T15:00:00.000Z" agent="5.0 (Windows NT 10.0; Win64; x64) AppleWebKit/537.36 (KHTML, like Gecko) Chrome/96.0.4664.110 Safari/537.36" etag="your-etag" version="@DRAWIO-VERSION@">
  <diagram id="things-layer" name="Things Layer">
    <mxGraphModel dx="1422" dy="794" grid="1" gridSize="10" guides="1" tooltips="1" connect="1" arrows="1" fold="1" page="1" pageScale="1" pageWidth="850" pageHeight="1100" math="0" shadow="0">
      <root>
        <mxCell id="0" />
        <mxCell id="1" parent="0" />
        <mxCell id="2" value="" style="rounded=0;whiteSpace=wrap;html=1;fillColor=#1a5276;strokeColor=#154360;strokeWidth=3;" vertex="1" parent="1">
          <mxGeometry x="50" y="50" width="750" height="550" as="geometry" />
        </mxCell>
        <mxCell id="3" value="&lt;font style=&quot;font-size: 20px;&quot; color=&quot;#ffffff&quot;&gt;&lt;b&gt;Things Layer - Smart Farm Deployment&lt;/b&gt;&lt;/font&gt;" style="text;html=1;align=center;verticalAlign=middle;resizable=0;points=[];autosize=1;strokeColor=none;fillColor=none;" vertex="1" parent="1">
          <mxGeometry x="240" y="70" width="370" height="40" as="geometry" />
        </mxCell>
        <mxCell id="4" value="" style="endArrow=none;html=1;rounded=0;strokeWidth=2;fontColor=#ffffff;strokeColor=#3498db;" edge="1" parent="1">
          <mxGeometry width="50" height="50" relative="1" as="geometry">
            <mxPoint x="240" y="110" as="sourcePoint" />
            <mxPoint x="610" y="110" as="targetPoint" />
          </mxGeometry>
        </mxCell>
        <mxCell id="5" value="" style="rounded=1;whiteSpace=wrap;html=1;fillColor=#4285f4;strokeColor=#2a56c6;strokeWidth=2;" vertex="1" parent="1">
          <mxGeometry x="150" y="140" width="150" height="50" as="geometry" />
        </mxCell>
        <mxCell id="6" value="&lt;font style=&quot;font-size: 16px;&quot; color=&quot;#ffffff&quot;&gt;&lt;b&gt;Field Zone 1&lt;/b&gt;&lt;/font&gt;" style="text;html=1;strokeColor=none;fillColor=none;align=center;verticalAlign=middle;whiteSpace=wrap;rounded=0;" vertex="1" parent="1">
          <mxGeometry x="195" y="150" width="60" height="30" as="geometry" />
        </mxCell>
        <mxCell id="7" value="" style="rounded=1;whiteSpace=wrap;html=1;fillColor=#4285f4;strokeColor=#2a56c6;strokeWidth=2;" vertex="1" parent="1">
          <mxGeometry x="100" y="220" width="100" height="40" as="geometry" />
        </mxCell>
        <mxCell id="8" value="&lt;font color=&quot;#ffffff&quot;&gt;&lt;b&gt;Soil Sensor 1&lt;/b&gt;&lt;/font&gt;" style="text;html=1;strokeColor=none;fillColor=none;align=center;verticalAlign=middle;whiteSpace=wrap;rounded=0;" vertex="1" parent="1">
          <mxGeometry x="120" y="225" width="60" height="30" as="geometry" />
        </mxCell>
        <mxCell id="9" value="" style="rounded=1;whiteSpace=wrap;html=1;fillColor=#4285f4;strokeColor=#2a56c6;strokeWidth=2;" vertex="1" parent="1">
          <mxGeometry x="240" y="220" width="100" height="40" as="geometry" />
        </mxCell>
        <mxCell id="10" value="&lt;font color=&quot;#ffffff&quot;&gt;&lt;b&gt;Soil Sensor 2&lt;/b&gt;&lt;/font&gt;" style="text;html=1;strokeColor=none;fillColor=none;align=center;verticalAlign=middle;whiteSpace=wrap;rounded=0;" vertex="1" parent="1">
          <mxGeometry x="260" y="225" width="60" height="30" as="geometry" />
        </mxCell>
        <mxCell id="11" value="" style="endArrow=classic;html=1;rounded=0;strokeWidth=2;fontColor=#a2c4ef;strokeColor=#a2c4ef;exitX=0.5;exitY=1;exitDx=0;exitDy=0;entryX=0.5;entryY=0;entryDx=0;entryDy=0;" edge="1" parent="1" source="5" target="7">
          <mxGeometry width="50" height="50" relative="1" as="geometry">
            <mxPoint x="400" y="380" as="sourcePoint" />
            <mxPoint x="450" y="330" as="targetPoint" />
          </mxGeometry>
        </mxCell>
        <mxCell id="12" value="" style="endArrow=classic;html=1;rounded=0;strokeWidth=2;fontColor=#a2c4ef;strokeColor=#a2c4ef;exitX=0.5;exitY=1;exitDx=0;exitDy=0;entryX=0.5;entryY=0;entryDx=0;entryDy=0;" edge="1" parent="1" source="5" target="9">
          <mxGeometry width="50" height="50" relative="1" as="geometry">
            <mxPoint x="225" y="200" as="sourcePoint" />
            <mxPoint x="160" y="230" as="targetPoint" />
          </mxGeometry>
        </mxCell>
        <mxCell id="13" value="" style="ellipse;whiteSpace=wrap;html=1;aspect=fixed;fillColor=#ffffff;strokeColor=none;" vertex="1" parent="1">
          <mxGeometry x="221" y="190" width="8" height="8" as="geometry" />
        </mxCell>
        <mxCell id="14" value="" style="ellipse;whiteSpace=wrap;html=1;aspect=fixed;fillColor=#ffffff;strokeColor=none;" vertex="1" parent="1">
          <mxGeometry x="150" y="220" width="8" height="8" as="geometry" />
        </mxCell>
        <mxCell id="15" value="" style="ellipse;whiteSpace=wrap;html=1;aspect=fixed;fillColor=#ffffff;strokeColor=none;" vertex="1" parent="1">
          <mxGeometry x="290" y="220" width="8" height="8" as="geometry" />
        </mxCell>
        <mxCell id="16" value="" style="rounded=1;whiteSpace=wrap;html=1;fillColor=#4285f4;strokeColor=#2a56c6;strokeWidth=2;" vertex="1" parent="1">
          <mxGeometry x="550" y="140" width="150" height="50" as="geometry" />
        </mxCell>
        <mxCell id="17" value="&lt;font style=&quot;font-size: 16px;&quot; color=&quot;#ffffff&quot;&gt;&lt;b&gt;Field Zone 2&lt;/b&gt;&lt;/font&gt;" style="text;html=1;strokeColor=none;fillColor=none;align=center;verticalAlign=middle;whiteSpace=wrap;rounded=0;" vertex="1" parent="1">
          <mxGeometry x="595" y="150" width="60" height="30" as="geometry" />
        </mxCell>
        <mxCell id="18" value="" style="rounded=1;whiteSpace=wrap;html=1;fillColor=#4285f4;strokeColor=#2a56c6;strokeWidth=2;" vertex="1" parent="1">
          <mxGeometry x="500" y="220" width="100" height="40" as="geometry" />
        </mxCell>
        <mxCell id="19" value="&lt;font color=&quot;#ffffff&quot;&gt;&lt;b&gt;Soil Sensor 3&lt;/b&gt;&lt;/font&gt;" style="text;html=1;strokeColor=none;fillColor=none;align=center;verticalAlign=middle;whiteSpace=wrap;rounded=0;" vertex="1" parent="1">
          <mxGeometry x="520" y="225" width="60" height="30" as="geometry" />
        </mxCell>
        <mxCell id="20" value="" style="rounded=1;whiteSpace=wrap;html=1;fillColor=#4285f4;strokeColor=#2a56c6;strokeWidth=2;" vertex="1" parent="1">
          <mxGeometry x="640" y="220" width="100" height="40" as="geometry" />
        </mxCell>
        <mxCell id="21" value="&lt;font color=&quot;#ffffff&quot;&gt;&lt;b&gt;Soil Sensor 4&lt;/b&gt;&lt;/font&gt;" style="text;html=1;strokeColor=none;fillColor=none;align=center;verticalAlign=middle;whiteSpace=wrap;rounded=0;" vertex="1" parent="1">
          <mxGeometry x="660" y="225" width="60" height="30" as="geometry" />
        </mxCell>
        <mxCell id="22" value="" style="endArrow=classic;html=1;rounded=0;strokeWidth=2;fontColor=#a2c4ef;strokeColor=#a2c4ef;exitX=0.5;exitY=1;exitDx=0;exitDy=0;entryX=0.5;entryY=0;entryDx=0;entryDy=0;" edge="1" parent="1" source="16" target="18">
          <mxGeometry width="50" height="50" relative="1" as="geometry">
            <mxPoint x="225" y="200" as="sourcePoint" />
            <mxPoint x="160" y="230" as="targetPoint" />
          </mxGeometry>
        </mxCell>
        <mxCell id="23" value="" style="endArrow=classic;html=1;rounded=0;strokeWidth=2;fontColor=#a2c4ef;strokeColor=#a2c4ef;exitX=0.5;exitY=1;exitDx=0;exitDy=0;entryX=0.5;entryY=0;entryDx=0;entryDy=0;" edge="1" parent="1" source="16" target="20">
          <mxGeometry width="50" height="50" relative="1" as="geometry">
            <mxPoint x="635" y="200" as="sourcePoint" />
            <mxPoint x="560" y="230" as="targetPoint" />
          </mxGeometry>
        </mxCell>
        <mxCell id="24" value="" style="ellipse;whiteSpace=wrap;html=1;aspect=fixed;fillColor=#ffffff;strokeColor=none;" vertex="1" parent="1">
          <mxGeometry x="621" y="190" width="8" height="8" as="geometry" />
        </mxCell>
        <mxCell id="25" value="" style="ellipse;whiteSpace=wrap;html=1;aspect=fixed;fillColor=#ffffff;strokeColor=none;" vertex="1" parent="1">
          <mxGeometry x="550" y="220" width="8" height="8" as="geometry" />
        </mxCell>
        <mxCell id="26" value="" style="ellipse;whiteSpace=wrap;html=1;aspect=fixed;fillColor=#ffffff;strokeColor=none;" vertex="1" parent="1">
          <mxGeometry x="690" y="220" width="8" height="8" as="geometry" />
        </mxCell>
        <mxCell id="27" value="" style="rounded=1;whiteSpace=wrap;html=1;fillColor=#34a853;strokeColor=#2a8845;strokeWidth=2;" vertex="1" parent="1">
          <mxGeometry x="100" y="290" width="100" height="40" as="geometry" />
        </mxCell>
        <mxCell id="28" value="&lt;font color=&quot;#ffffff&quot;&gt;&lt;b&gt;Temp Sensor 1&lt;/b&gt;&lt;/font&gt;" style="text;html=1;strokeColor=none;fillColor=none;align=center;verticalAlign=middle;whiteSpace=wrap;rounded=0;" vertex="1" parent="1">
          <mxGeometry x="120" y="295" width="60" height="30" as="geometry" />
        </mxCell>
        <mxCell id="29" value="" style="rounded=1;whiteSpace=wrap;html=1;fillColor=#fa7b17;strokeColor=#e56c12;strokeWidth=2;" vertex="1" parent="1">
          <mxGeometry x="240" y="290" width="100" height="40" as="geometry" />
        </mxCell>
        <mxCell id="30" value="&lt;font color=&quot;#ffffff&quot;&gt;&lt;b&gt;Humidity 1&lt;/b&gt;&lt;/font&gt;" style="text;html=1;strokeColor=none;fillColor=none;align=center;verticalAlign=middle;whiteSpace=wrap;rounded=0;" vertex="1" parent="1">
          <mxGeometry x="260" y="295" width="60" height="30" as="geometry" />
        </mxCell>
        <mxCell id="31" value="" style="rounded=1;whiteSpace=wrap;html=1;fillColor=#34a853;strokeColor=#2a8845;strokeWidth=2;" vertex="1" parent="1">
          <mxGeometry x="500" y="290" width="100" height="40" as="geometry" />
        </mxCell>
        <mxCell id="32" value="&lt;font color=&quot;#ffffff&quot;&gt;&lt;b&gt;Temp Sensor 2&lt;/b&gt;&lt;/font&gt;" style="text;html=1;strokeColor=none;fillColor=none;align=center;verticalAlign=middle;whiteSpace=wrap;rounded=0;" vertex="1" parent="1">
          <mxGeometry x="520" y="295" width="60" height="30" as="geometry" />
        </mxCell>
        <mxCell id="33" value="" style="rounded=1;whiteSpace=wrap;html=1;fillColor=#fa7b17;strokeColor=#e56c12;strokeWidth=2;" vertex="1" parent="1">
          <mxGeometry x="640" y="290" width="100" height="40" as="geometry" />
        </mxCell>
        <mxCell id="34" value="&lt;font color=&quot;#ffffff&quot;&gt;&lt;b&gt;Humidity 2&lt;/b&gt;&lt;/font&gt;" style="text;html=1;strokeColor=none;fillColor=none;align=center;verticalAlign=middle;whiteSpace=wrap;rounded=0;" vertex="1" parent="1">
          <mxGeometry x="660" y="295" width="60" height="30" as="geometry" />
        </mxCell>
        <mxCell id="35" value="" style="curved=1;endArrow=classic;html=1;rounded=0;strokeWidth=2;fontColor=#a2c4ef;strokeColor=#a2c4ef;exitX=0.5;exitY=1;exitDx=0;exitDy=0;entryX=0.5;entryY=0;entryDx=0;entryDy=0;" edge="1" parent="1" source="7" target="27">
          <mxGeometry width="50" height="50" relative="1" as="geometry">
            <mxPoint x="150" y="270" as="sourcePoint" />
            <mxPoint x="150" y="300" as="targetPoint" />
            <Array as="points">
              <mxPoint x="150" y="270" />
              <mxPoint x="150" y="280" />
            </Array>
          </mxGeometry>
        </mxCell>
        <mxCell id="36" value="" style="curved=1;endArrow=classic;html=1;rounded=0;strokeWidth=2;fontColor=#a2c4ef;strokeColor=#a2c4ef;exitX=0.5;exitY=1;exitDx=0;exitDy=0;entryX=0.5;entryY=0;entryDx=0;entryDy=0;" edge="1" parent="1" source="7" target="29">
          <mxGeometry width="50" height="50" relative="1" as="geometry">
            <mxPoint x="160" y="270" as="sourcePoint" />
            <mxPoint x="160" y="300" as="targetPoint" />
            <Array as="points">
              <mxPoint x="150" y="270" />
              <mxPoint x="200" y="270" />
              <mxPoint x="290" y="280" />
            </Array>
          </mxGeometry>
        </mxCell>
        <mxCell id="37" value="" style="curved=1;endArrow=classic;html=1;rounded=0;strokeWidth=2;fontColor=#a2c4ef;strokeColor=#a2c4ef;exitX=0.5;exitY=1;exitDx=0;exitDy=0;entryX=0.5;entryY=0;entryDx=0;entryDy=0;" edge="1" parent="1" source="18" target="31">
          <mxGeometry width="50" height="50" relative="1" as="geometry">
            <mxPoint x="160" y="270" as="sourcePoint" />
            <mxPoint x="160" y="300" as="targetPoint" />
            <Array as="points">
              <mxPoint x="550" y="270" />
              <mxPoint x="550" y="280" />
            </Array>
          </mxGeometry>
        </mxCell>
        <mxCell id="38" value="" style="curved=1;endArrow=classic;html=1;rounded=0;strokeWidth=2;fontColor=#a2c4ef;strokeColor=#a2c4ef;exitX=0.5;exitY=1;exitDx=0;exitDy=0;entryX=0.5;entryY=0;entryDx=0;entryDy=0;" edge="1" parent="1" source="20" target="33">
          <mxGeometry width="50" height="50" relative="1" as="geometry">
            <mxPoint x="560" y="270" as="sourcePoint" />
            <mxPoint x="560" y="300" as="targetPoint" />
            <Array as="points">
              <mxPoint x="690" y="270" />
              <mxPoint x="690" y="280" />
            </Array>
          </mxGeometry>
        </mxCell>
        <mxCell id="39" value="" style="ellipse;whiteSpace=wrap;html=1;aspect=fixed;fillColor=#ffffff;strokeColor=none;" vertex="1" parent="1">
          <mxGeometry x="146" y="260" width="8" height="8" as="geometry" />
        </mxCell>
        <mxCell id="40" value="" style="ellipse;whiteSpace=wrap;html=1;aspect=fixed;fillColor=#ffffff;strokeColor=none;" vertex="1" parent="1">
          <mxGeometry x="150" y="290" width="8" height="8" as="geometry" />
        </mxCell>
        <mxCell id="41" value="" style="ellipse;whiteSpace=wrap;html=1;aspect=fixed;fillColor=#ffffff;strokeColor=none;" vertex="1" parent="1">
          <mxGeometry x="290" y="290" width="8" height="8" as="geometry" />
        </mxCell>
        <mxCell id="42" value="" style="ellipse;whiteSpace=wrap;html=1;aspect=fixed;fillColor=#ffffff;strokeColor=none;" vertex="1" parent="1">
          <mxGeometry x="546" y="260" width="8" height="8" as="geometry" />
        </mxCell>
        <mxCell id="43" value="" style="ellipse;whiteSpace=wrap;html=1;aspect=fixed;fillColor=#ffffff;strokeColor=none;" vertex="1" parent="1">
          <mxGeometry x="550" y="290" width="8" height="8" as="geometry" />
        </mxCell>
        <mxCell id="44" value="" style="ellipse;whiteSpace=wrap;html=1;aspect=fixed;fillColor=#ffffff;strokeColor=none;" vertex="1" parent="1">
          <mxGeometry x="686" y="260" width="8" height="8" as="geometry" />
        </mxCell>
        <mxCell id="45" value="" style="ellipse;whiteSpace=wrap;html=1;aspect=fixed;fillColor=#ffffff;strokeColor=none;" vertex="1" parent="1">
          <mxGeometry x="690" y="290" width="8" height="8" as="geometry" />
        </mxCell>
        <mxCell id="46" value="" style="rounded=1;whiteSpace=wrap;html=1;fillColor=#ffffff;strokeColor=#dddddd;strokeWidth=2;" vertex="1" parent="1">
          <mxGeometry x="150" y="380" width="150" height="50" as="geometry" />
        </mxCell>
        <mxCell id="47" value="&lt;font style=&quot;font-size: 16px;&quot; color=&quot;#333333&quot;&gt;&lt;b&gt;Gateway 1&lt;/b&gt;&lt;/font&gt;" style="text;html=1;strokeColor=none;fillColor=none;align=center;verticalAlign=middle;whiteSpace=wrap;rounded=0;" vertex="1" parent="1">
          <mxGeometry x="195" y="390" width="60" height="30" as="geometry" />
        </mxCell>
        <mxCell id="48" value="" style="rounded=1;whiteSpace=wrap;html=1;fillColor=#ffffff;strokeColor=#dddddd;strokeWidth=2;" vertex="1" parent="1">
          <mxGeometry x="550" y="380" width="150" height="50" as="geometry" />
        </mxCell>
        <mxCell id="49" value="&lt;font style=&quot;font-size: 16px;&quot; color=&quot;#333333&quot;&gt;&lt;b&gt;Gateway 2&lt;/b&gt;&lt;/font&gt;" style="text;html=1;strokeColor=none;fillColor=none;align=center;verticalAlign=middle;whiteSpace=wrap;rounded=0;" vertex="1" parent="1">
          <mxGeometry x="595" y="390" width="60" height="30" as="geometry" />
        </mxCell>
        <mxCell id="50" value="" style="endArrow=classic;html=1;rounded=0;strokeWidth=2;fontColor=#a2c4ef;strokeColor=#a2c4ef;entryX=0.5;entryY=0;entryDx=0;entryDy=0;" edge="1" parent="1" target="46">
          <mxGeometry width="50" height="50" relative="1" as="geometry">
            <mxPoint x="150" y="330" as="sourcePoint" />
            <mxPoint x="260" y="370" as="targetPoint" />
            <Array as="points">
              <mxPoint x="150" y="350" />
              <mxPoint x="225" y="350" />
            </Array>
          </mxGeometry>
        </mxCell>
        <mxCell id="51" value="" style="endArrow=classic;html=1;rounded=0;strokeWidth=2;fontColor=#a2c4ef;strokeColor=#a2c4ef;entryX=0.5;entryY=0;entryDx=0;entryDy=0;exitX=0.5;exitY=1;exitDx=0;exitDy=0;" edge="1" parent="1" source="29" target="46">
          <mxGeometry width="50" height="50" relative="1" as="geometry">
            <mxPoint x="160" y="340" as="sourcePoint" />
            <mxPoint x="235" y="390" as="targetPoint" />
            <Array as="points">
              <mxPoint x="290" y="350" />
              <mxPoint x="225" y="350" />
            </Array>
          </mxGeometry>
        </mxCell>
        <mxCell id="52" value="" style="endArrow=classic;html=1;rounded=0;strokeWidth=2;fontColor=#a2c4ef;strokeColor=#a2c4ef;entryX=0.5;entryY=0;entryDx=0;entryDy=0;exitX=0.5;exitY=1;exitDx=0;exitDy=0;" edge="1" parent="1" source="31" target="48">
          <mxGeometry width="50" height="50" relative="1" as="geometry">
            <mxPoint x="300" y="340" as="sourcePoint" />
            <mxPoint x="235" y="390" as="targetPoint" />
            <Array as="points">
              <mxPoint x="550" y="350" />
              <mxPoint x="625" y="350" />
            </Array>
          </mxGeometry>
        </mxCell>
        <mxCell id="53" value="" style="endArrow=classic;html=1;rounded=0;strokeWidth=2;fontColor=#a2c4ef;strokeColor=#a2c4ef;entryX=0.5;entryY=0;entryDx=0;entryDy=0;exitX=0.5;exitY=1;exitDx=0;exitDy=0;" edge="1" parent="1" source="33" target="48">
          <mxGeometry width="50" height="50" relative="1" as="geometry">
            <mxPoint x="560" y="340" as="sourcePoint" />
            <mxPoint x="635" y="390" as="targetPoint" />
            <Array as="points">
              <mxPoint x="690" y="350" />
              <mxPoint x="625" y="350" />
            </Array>
          </mxGeometry>
        </mxCell>
        <mxCell id="54" value="" style="rounded=1;whiteSpace=wrap;html=1;fillColor=#ffffff;strokeColor=#dddddd;strokeWidth=2;" vertex="1" parent="1">
          <mxGeometry x="350" y="460" width="150" height="50" as="geometry" />
        </mxCell>
        <mxCell id="55" value="&lt;font style=&quot;font-size: 16px;&quot; color=&quot;#333333&quot;&gt;&lt;b&gt;Network Server&lt;/b&gt;&lt;/font&gt;" style="text;html=1;strokeColor=none;fillColor=none;align=center;verticalAlign=middle;whiteSpace=wrap;rounded=0;" vertex="1" parent="1">
          <mxGeometry x="395" y="470" width="60" height="30" as="geometry" />
        </mxCell>
        <mxCell id="56" value="" style="endArrow=classic;html=1;rounded=0;strokeWidth=2;fontColor=#a2c4ef;strokeColor=#a2c4ef;exitX=0.5;exitY=1;exitDx=0;exitDy=0;entryX=0.25;entryY=0;entryDx=0;entryDy=0;" edge="1" parent="1" source="46" target="54">
          <mxGeometry width="50" height="50" relative="1" as="geometry">
            <mxPoint x="400" y="410" as="sourcePoint" />
            <mxPoint x="450" y="360" as="targetPoint" />
          </mxGeometry>
        </mxCell>
        <mxCell id="57" value="" style="endArrow=classic;html=1;rounded=0;strokeWidth=2;fontColor=#a2c4ef;strokeColor=#a2c4ef;exitX=0.5;exitY=1;exitDx=0;exitDy=0;entryX=0.75;entryY=0;entryDx=0;entryDy=0;" edge="1" parent="1" source="48" target="54">
          <mxGeometry width="50" height="50" relative="1" as="geometry">
            <mxPoint x="235" y="440" as="sourcePoint" />
            <mxPoint x="397.5" y="470" as="targetPoint" />
          </mxGeometry>
        </mxCell>
        <mxCell id="58" value="" style="rounded=1;whiteSpace=wrap;html=1;fillColor=#ffffff;strokeColor=#dddddd;strokeWidth=2;" vertex="1" parent="1">
          <mxGeometry x="580" y="460" width="120" height="50" as="geometry" />
        </mxCell>
        <mxCell id="59" value="&lt;font style=&quot;font-size: 14px;&quot; color=&quot;#333333&quot;&gt;&lt;b&gt;Cloud Platform&lt;/b&gt;&lt;/font&gt;" style="text;html=1;strokeColor=none;fillColor=none;align=center;verticalAlign=middle;whiteSpace=wrap;rounded=0;" vertex="1" parent="1">
          <mxGeometry x="610" y="470" width="60" height="30" as="geometry" />
        </mxCell>
        <mxCell id="60" value="" style="endArrow=classic;html=1;rounded=0;strokeWidth=2;fontColor=#a2c4ef;strokeColor=#a2c4ef;exitX=1;exitY=0.5;exitDx=0;exitDy=0;entryX=0;entryY=0.5;entryDx=0;entryDy=0;" edge="1" parent="1" source="54" target="58">
          <mxGeometry width="50" height="50" relative="1" as="geometry">
            <mxPoint x="635" y="440" as="sourcePoint" />
            <mxPoint x="462.5" y="470" as="targetPoint" />
          </mxGeometry>
        </mxCell>
      </root>
    </mxGraphModel>
  </diagram>
</mxfile>